<svg id="Capa_1" enable-background="new 0 0 512 512" height="512" viewBox="0 0 512 512" width="512" xmlns="http://www.w3.org/2000/svg"><path d="m356.011 507.382-238.457-96.218 129.408-397.31 265.038 106.944z" fill="#c9e6fe"/><path d="m356.011 507.382-135.238-54.569 145.613-390.771 145.614 58.756z" fill="#9cd2f4"/><path d="m232.971 238.709 37.234 81.952 13.66-6.287 67.677-31.041c11.103-5.093 19.948-14.279 24.093-25.77 4.425-12.268 3.331-25.64-3.169-37.182-4.62-8.202-11.804-14.754-20.386-18.623-.626-.282-1.255-.549-1.888-.802-8.017-3.196-16.892-3.528-25.228-1.294l-10.948 2.922-5.799-8.762c-5.162-7.798-12.797-13.719-21.745-16.438-.112-.034-.224-.068-.337-.101-9.072-2.681-18.842-2.387-27.729.856-12.532 4.573-22.109 14.128-26.687 26.465-4.151 11.184-3.698 23.313 1.252 34.105z" fill="#d20041"/><path d="m232.971 238.709 37.234 81.952 43.81-118.076-5.799-8.762c-5.162-7.798-12.797-13.719-21.745-16.438-.112-.034-.224-.068-.337-.101-9.072-2.681-18.842-2.387-27.729.856-12.532 4.573-22.109 14.128-26.687 26.465-4.15 11.183-3.697 23.312 1.253 34.104z" fill="#ff0059"/><path d="m296.614 421.488h-296.614v-416.87h296.614z" fill="#e0f1fb"/><path d="m296.614 421.488h-152.304v-416.87h152.304z" fill="#b2dcfd"/><path d="m34.643 37.666h28.147v28.147h-28.147z" fill="#575f64" transform="matrix(.707 .707 -.707 .707 50.854 -19.293)"/><path d="m230.643 355.548h28.147v28.147h-28.147z" fill="#32393f" transform="matrix(.707 .707 -.707 .707 333.037 -64.781)"/><path d="m311.818 421.786h28.147v28.147h-28.147z" fill="#32393f" transform="matrix(.398 .917 -.917 .398 595.972 -36.618)"/><path d="m207.732 183.895-63.421-63.877-63.811 63.839c-8.434 8.434-13.079 19.648-13.079 31.575s4.645 23.141 13.079 31.574c8.434 8.434 19.648 13.079 31.575 13.079 5.949 0 11.721-1.157 17.059-3.362v36.241h29.929v-36.241c5.338 2.205 11.109 3.362 17.058 3.362 11.927 0 23.141-4.645 31.574-13.079 8.434-8.434 13.079-19.648 13.079-31.575s-4.646-23.14-13.042-31.536z" fill="#575f64"/><path d="m207.732 183.895-63.421-63.877-.001 172.947h14.752v-36.241c5.338 2.205 11.109 3.362 17.058 3.362 11.927 0 23.141-4.645 31.574-13.079 8.434-8.434 13.079-19.648 13.079-31.575s-4.645-23.141-13.041-31.537z" fill="#32393f"/></svg>